{"asset":{"version":"2.0","generator":"Blockbench 4.10.0 glTF exporter"},"scenes":[{"nodes":[1],"name":"blockbench_export"}],"scene":0,"nodes":[{"rotation":[0,0,0.8968727415326883,0.44228869021900147],"translation":[0.051259419492228925,1.345530033871837,0],"name":"centro","mesh":0},{"children":[0]}],"bufferViews":[{"buffer":0,"byteOffset":0,"byteLength":26736,"target":34962,"byteStride":12},{"buffer":0,"byteOffset":26736,"byteLength":26736,"target":34962,"byteStride":12},{"buffer":0,"byteOffset":53472,"byteLength":17824,"target":34962,"byteStride":8},{"buffer":0,"byteOffset":71296,"byteLength":6672,"target":34963}],"buffers":[{"byteLength":77968,"uri":"data:application/octet-stream;base64,"}],"accessors":[{"bufferView":0,"componentType":5126,"count":2228,"max":[0.29400306940078735,0.6669433116912842,0.06875000149011612],"min":[-0.7743690013885498,-0.3634341061115265,-0.06875000149011612],"type":"VEC3"},{"bufferView":1,"componentType":5126,"count":2228,"max":[1,1,1],"min":[-1,-1,-1],"type":"VEC3"},{"bufferView":2,"componentType":5126,"count":2228,"max":[0.859619140625,1],"min":[0,0],"type":"VEC2"},{"bufferView":3,"componentType":5123,"count":3336,"max":[2227],"min":[0],"type":"SCALAR"}],"materials":[{"pbrMetallicRoughness":{"metallicFactor":0,"roughnessFactor":1,"baseColorTexture":{"index":0}},"alphaMode":"MASK","alphaCutoff":0.05,"doubleSided":true}],"textures":[{"sampler":0,"source":0,"name":"texture_work_cruz_solid_redHeart.png"}],"samplers":[{"magFilter":9728,"minFilter":9728,"wrapS":33071,"wrapT":33071}],"images":[{"mimeType":"image/png","uri":"data:image/png;base64,"}],"meshes":[{"primitives":[{"mode":4,"attributes":{"POSITION":0,"NORMAL":1,"TEXCOORD_0":2},"indices":3,"material":0}]}]}